HIERARCHY
ROOT Hips
{
  OFFSET 0.000000 0.000000 0.000000
  CHANNELS 6 Xposition Yposition Zposition Xrotation Yrotation Zrotation
  JOINT Spine
  {
    OFFSET 0.384862 23.362435 -6.545746
    CHANNELS 3 Xrotation Yrotation Zrotation
    JOINT Chest
    {
      OFFSET 0.384862 23.362435 -6.545746
      CHANNELS 3 Xrotation Yrotation Zrotation
      JOINT Neck
      {
        OFFSET -0.726359 3.494450 -9.275600
        CHANNELS 3 Xrotation Yrotation Zrotation
        JOINT Head
        {
          OFFSET -0.827274 3.104519 -12.830805
          CHANNELS 3 Xrotation Yrotation Zrotation
          End Site
          {
            OFFSET -0.248182 0.931356 -3.849242
          }
        }
      }
      JOINT LeftCollar
      {
        OFFSET 3.000000 4.000000 0.000000
        CHANNELS 3 Xrotation Yrotation Zrotation
        JOINT LeftShoulder
        {
          OFFSET 16.753096 -1.874518 -2.350806
          CHANNELS 3 Xrotation Yrotation Zrotation
          JOINT LeftArm
          {
            OFFSET 9.215470 -17.927143 -6.750691
            CHANNELS 3 Xrotation Yrotation Zrotation
            JOINT LeftForeArm
            {
              OFFSET -8.631796 -1.807562 -13.626102
              CHANNELS 3 Xrotation Yrotation Zrotation
              JOINT LeftHand
              {
                OFFSET -3.581741 1.574515 -2.219805
                CHANNELS 3 Xrotation Yrotation Zrotation
                End Site
                {
                  OFFSET -1.074522 0.472355 -0.665942
                }
              }
            }
          }
        }
      }
      JOINT RightCollar
      {
        OFFSET -3.000000 4.000000 0.000000
        CHANNELS 3 Xrotation Yrotation Zrotation
        JOINT RightShoulder
        {
          OFFSET -16.753096 1.874518 2.350806
          CHANNELS 3 Xrotation Yrotation Zrotation
          JOINT RightArm
          {
            OFFSET -4.024878 -26.092607 -12.467419
            CHANNELS 3 Xrotation Yrotation Zrotation
            JOINT RightForeArm
            {
              OFFSET 6.746233 1.826222 -21.720462
              CHANNELS 3 Xrotation Yrotation Zrotation
              JOINT RightHand
              {
                OFFSET 4.773503 3.298478 -5.155945
                CHANNELS 3 Xrotation Yrotation Zrotation
                End Site
                {
                  OFFSET 1.432051 0.989543 -1.546783
                }
              }
            }
          }
        }
      }
    }
  }
  JOINT LeftUpLeg
  {
    OFFSET 9.108096 0.180174 1.189578
    CHANNELS 3 Xrotation Yrotation Zrotation
    JOINT LeftLeg
    {
      OFFSET 8.006705 -41.225060 -10.059709
      CHANNELS 3 Xrotation Yrotation Zrotation
      JOINT LeftFoot
      {
        OFFSET 4.362087 -38.764367 9.241715
        CHANNELS 3 Xrotation Yrotation Zrotation
        End Site
        {
          OFFSET 1.308626 -11.629310 2.772515
        }
      }
    }
  }
  JOINT RightUpLeg
  {
    OFFSET -9.108096 -0.180174 -1.189578
    CHANNELS 3 Xrotation Yrotation Zrotation
    JOINT RightLeg
    {
      OFFSET -2.107032 -32.214779 1.747249
      CHANNELS 3 Xrotation Yrotation Zrotation
      JOINT RightFoot
      {
        OFFSET -6.367369 -42.204761 13.125504
        CHANNELS 3 Xrotation Yrotation Zrotation
        End Site
        {
          OFFSET -1.910211 -12.661428 3.937651
        }
      }
    }
  }
}
MOTION
Frames: 14
Frame Time: 0.083333
5.497489 56.153806 -14.597767 12.143276 -0.572327 -2.173456 0.000000 0.000000 0.000000 -11.552053 -2.126344 1.321055 -0.862638 -0.234990 0.422425 167.785928 10.513519 -16.395627 -1.196657 -3.863225 0.423593 31.173016 0.622563 26.787057 -13.748120 9.353287 -29.781959 0.000000 0.000000 0.000000 0.000000 0.000000 0.000000 -1.196657 -3.863225 0.423593 4.169736 7.406569 -0.969589 12.647974 0.357612 -0.676859 0.000000 0.000000 0.000000 0.000000 0.000000 0.000000 1.074692 0.912843 12.449947 5.353797 2.536991 5.457564 0.000000 0.000000 0.000000 -17.819015 -1.270201 -5.578441 -8.585614 0.248557 7.875189 0.000000 0.000000 0.000000
5.360768 56.171027 -10.963767 11.485124 -1.025446 -4.864644 0.000000 0.000000 0.000000 -10.597213 -3.156735 3.630338 -1.346547 -0.182686 0.717259 165.303102 11.702812 -15.208484 -1.377283 -5.475454 3.051386 22.997635 7.671114 17.280936 5.026434 -0.956058 -21.453515 0.000000 0.000000 0.000000 0.000000 0.000000 0.000000 -1.377283 -5.475454 3.051386 5.456209 7.327100 4.087590 12.085634 0.216442 -4.061288 0.000000 0.000000 0.000000 0.000000 0.000000 0.000000 3.328447 1.784376 14.663694 4.589725 2.227167 4.487399 0.000000 0.000000 0.000000 -16.339980 -1.353057 -4.164365 -13.301501 -1.826538 4.969826 0.000000 0.000000 0.000000
4.757878 56.190463 -9.262127 12.284814 -1.339321 -6.818430 0.000000 0.000000 0.000000 -10.411216 -3.301653 5.397930 -1.770127 -0.633662 0.752167 164.883122 11.176566 -14.397466 -2.515567 -6.760012 0.753054 7.845366 12.836485 7.199341 30.611815 -7.389194 -6.227835 0.000000 0.000000 0.000000 0.000000 0.000000 0.000000 -2.515567 -6.760012 0.753054 6.347262 7.164230 8.733209 10.676759 0.273095 -4.270036 0.000000 0.000000 0.000000 0.000000 0.000000 0.000000 2.482055 1.990494 14.482057 2.132498 2.419814 5.627335 0.000000 0.000000 0.000000 -11.894402 -0.675194 -2.899723 -16.091693 -2.657749 4.049216 0.000000 0.000000 0.000000
3.878781 54.536402 -10.064137 12.432300 -1.415332 -7.313562 0.000000 0.000000 0.000000 -10.265494 -2.645822 6.101165 -1.681020 -0.978737 0.528151 167.175415 6.229206 -13.905700 -3.126818 -7.120997 -4.261923 3.393559 10.388351 -0.117618 26.048088 -5.883278 5.515085 0.000000 0.000000 0.000000 0.000000 0.000000 0.000000 -3.126818 -7.120997 -4.261923 2.645063 4.753085 6.933572 10.926832 0.640952 1.150213 0.000000 0.000000 0.000000 0.000000 0.000000 0.000000 2.482386 2.413838 12.611549 -2.740331 2.488691 7.825264 0.000000 0.000000 0.000000 -16.603772 -1.381353 -4.016257 -10.384976 -0.777820 6.953234 0.000000 0.000000 0.000000
2.366278 51.907199 -10.821714 12.580380 -1.313473 -6.735798 0.000000 0.000000 0.000000 -11.151598 -0.699178 6.472456 -1.360952 -0.272057 0.243348 172.611663 -4.744934 -15.290902 -2.507493 -3.758494 -7.267147 5.915677 1.590128 -2.874342 18.158446 -5.270516 10.038142 0.000000 0.000000 0.000000 0.000000 0.000000 0.000000 -2.507493 -3.758494 -7.267147 0.199202 -4.269124 0.751189 12.638661 1.057546 7.671467 0.000000 0.000000 0.000000 0.000000 0.000000 0.000000 3.076262 3.266430 8.074444 -10.237021 2.074694 11.043375 0.000000 0.000000 0.000000 -16.499586 -1.220820 -6.712883 -8.048262 0.129970 10.035656 0.000000 0.000000 0.000000
0.712071 49.080493 -11.333586 12.410269 -1.029874 -4.932469 0.000000 0.000000 0.000000 -11.278816 2.881297 6.131302 -0.841666 0.917265 -0.190784 173.785672 -15.162528 -16.619370 -1.660054 4.608051 -8.158129 10.341191 -9.918562 2.285778 10.623020 -4.549801 4.301910 0.000000 0.000000 0.000000 0.000000 0.000000 0.000000 -1.660054 4.608051 -8.158129 -3.760511 -16.804192 -1.575872 15.921583 2.584520 6.236470 0.000000 0.000000 0.000000 0.000000 0.000000 0.000000 0.161016 3.719193 -0.340464 -8.947851 0.536034 18.952637 0.000000 0.000000 0.000000 -14.101915 -0.898387 -14.307695 -11.165504 0.763728 18.909601 0.000000 0.000000 0.000000
-0.531070 47.361359 -11.956298 12.967805 -0.407833 -1.336701 0.000000 0.000000 0.000000 -11.778826 5.530918 3.629268 -0.691626 1.291129 -0.555964 173.267701 -20.934905 -19.549084 0.201811 13.935770 -6.744748 15.249172 -13.850216 5.119927 2.861271 -5.885810 -1.133545 0.000000 0.000000 0.000000 0.000000 0.000000 0.000000 0.201811 13.935770 -6.744748 -10.403662 -24.403348 -3.560773 14.055057 4.052247 0.075932 0.000000 0.000000 0.000000 0.000000 0.000000 0.000000 -2.009011 4.006060 -7.981589 -6.170303 0.395059 27.314661 0.000000 0.000000 0.000000 -8.839637 -0.590337 -23.129851 -18.977381 0.690080 29.332843 0.000000 0.000000 0.000000
-0.967690 46.694718 -14.900956 12.255750 0.173808 2.253010 0.000000 0.000000 0.000000 -10.566349 6.514643 0.348051 -0.587314 1.215836 -0.690134 172.452464 -24.930763 -21.048097 2.344442 19.006068 -2.223435 18.959530 -11.941520 4.835259 -3.310930 -9.612821 -2.558622 0.000000 0.000000 0.000000 0.000000 0.000000 0.000000 2.344442 19.006068 -2.223435 -13.362570 -26.410927 -3.928950 10.348783 5.118814 -4.232626 0.000000 0.000000 0.000000 0.000000 0.000000 0.000000 -6.657820 3.141734 -10.924571 0.584291 2.044103 31.192887 0.000000 0.000000 0.000000 -10.242296 -0.333736 -21.789216 -16.699848 -0.151785 22.373551 0.000000 0.000000 0.000000
0.037124 47.392599 -21.671251 12.666589 0.497838 4.260448 0.000000 0.000000 0.000000 -10.790079 6.443097 -1.760941 -0.562468 1.469980 -0.590515 172.557086 -23.219917 -20.431666 3.491337 20.142211 0.822995 18.613356 -9.366959 4.140309 -5.987543 -10.318593 -2.974888 0.000000 0.000000 0.000000 0.000000 0.000000 0.000000 3.491337 20.142211 0.822995 -11.615006 -23.763320 -2.140634 5.979129 5.633065 -5.336276 0.000000 0.000000 0.000000 0.000000 0.000000 0.000000 -4.502066 2.526679 -8.277169 -0.642034 2.311323 27.081190 0.000000 0.000000 0.000000 -19.157406 0.499030 -12.868819 -2.653248 -1.272007 5.116360 0.000000 0.000000 0.000000
3.262494 49.653127 -27.397806 12.060497 0.499796 4.099174 0.000000 0.000000 0.000000 -10.007413 4.889934 -2.248219 -0.525453 1.615511 -0.266397 170.197090 -15.100960 -18.460800 2.640262 18.208830 1.426806 14.277847 -4.477143 4.271279 -6.164627 -9.200193 -3.348844 0.000000 0.000000 0.000000 0.000000 0.000000 0.000000 2.640262 18.208830 1.426806 -7.641598 -13.242981 -1.870825 -0.305337 2.348863 -1.717245 0.000000 0.000000 0.000000 0.000000 0.000000 0.000000 0.016703 0.991334 1.526664 -3.711492 2.784749 13.132317 0.000000 0.000000 0.000000 -40.108736 0.819049 -8.766392 28.980193 1.742660 1.265843 0.000000 0.000000 0.000000
6.778488 51.873582 -28.483960 11.916743 0.119770 1.837540 0.000000 0.000000 0.000000 -9.423283 1.205104 -1.595228 -0.593864 1.036831 0.259266 162.406050 6.619614 -16.251431 0.066130 12.576265 0.324669 7.423368 10.711293 4.896930 10.087699 -8.452120 -0.649517 0.000000 0.000000 0.000000 0.000000 0.000000 0.000000 0.066130 12.576265 0.324669 -0.111406 5.125538 2.057597 -7.764737 -3.687589 0.285937 0.000000 0.000000 0.000000 0.000000 0.000000 0.000000 2.762080 -0.541704 12.387452 -0.863444 4.026497 -0.309825 0.000000 0.000000 0.000000 -38.665498 -2.660007 -11.549609 16.655994 5.357588 8.554601 0.000000 0.000000 0.000000
8.487527 52.095311 -27.839668 11.789610 -0.502333 -1.799450 0.000000 0.000000 0.000000 -8.501637 -4.180289 -0.647634 -1.059134 -0.657018 0.873370 156.621925 26.033101 -5.596626 -2.990501 -0.404718 -2.866497 0.002226 32.589979 6.449403 32.041855 -8.221787 6.539737 0.000000 0.000000 0.000000 0.000000 0.000000 0.000000 -2.990501 -0.404718 -2.866497 8.338080 13.105135 23.364081 -0.814576 -1.908119 -17.181938 0.000000 0.000000 0.000000 0.000000 0.000000 0.000000 4.437779 0.805531 14.931770 -1.800744 3.914023 1.249538 0.000000 0.000000 0.000000 -34.006078 -4.709473 -12.582353 5.437382 5.096869 12.175884 0.000000 0.000000 0.000000
8.747046 51.119129 -28.981897 11.164387 -1.129350 -5.004475 0.000000 0.000000 0.000000 -5.729348 -6.461907 0.756204 -1.926264 -1.788799 1.478178 152.787685 22.550167 4.345354 -4.682608 -16.085131 -10.181885 -9.662731 42.897243 7.364970 41.528199 -5.028675 15.079571 0.000000 0.000000 0.000000 0.000000 0.000000 0.000000 -4.682608 -16.085131 -10.181885 14.747521 3.814153 50.596913 21.306061 11.394434 -44.756570 0.000000 0.000000 0.000000 0.000000 0.000000 0.000000 7.438987 2.774288 15.876763 -6.195579 3.750126 3.765732 0.000000 0.000000 0.000000 -27.233591 -4.832110 -9.514972 -1.628034 2.585211 11.132697 0.000000 0.000000 0.000000
8.778146 51.243330 -30.472113 7.731808 -1.807503 -8.078279 0.000000 0.000000 0.000000 -1.291969 -5.182522 3.796383 -2.666520 -1.659905 1.771680 155.743691 21.182164 6.223066 -4.048341 -23.679659 -16.445604 -11.818384 37.882597 7.572485 40.044963 -2.404796 15.578252 0.000000 0.000000 0.000000 0.000000 0.000000 0.000000 -4.048341 -23.679659 -16.445604 12.011506 10.217931 41.586316 18.680732 9.667431 -31.542940 0.000000 0.000000 0.000000 0.000000 0.000000 0.000000 5.288788 3.379120 15.595379 -9.812814 3.429930 5.008790 0.000000 0.000000 0.000000 -19.829440 -3.206730 -6.476293 -10.929902 -0.639206 9.736409 0.000000 0.000000 0.000000
